<svg width="43" height="45" viewBox="0 0 43 45" fill="none" xmlns="http://www.w3.org/2000/svg">
<path d="M37.8218 7.91834L26.2184 1.21821C23.3962 -0.406068 19.9319 -0.406068 17.1098 1.21821L5.5089 7.91834C2.6918 9.54261 0.960938 12.5501 0.960938 15.8011V29.1989C0.960938 32.4499 2.6918 35.4574 5.5089 37.0817L17.1123 43.7818C19.9345 45.4061 23.3988 45.4061 26.2209 43.7818L37.8243 37.0817C37.9182 37.0258 38.0096 36.9675 38.0959 36.9116C40.7531 35.2594 42.3723 32.3434 42.3723 29.2014V15.8011C42.3672 12.5501 40.6364 9.54261 37.8218 7.91834ZM27.5863 19.8694C29.0406 21.3237 29.0406 23.6763 27.5863 25.128L24.2946 28.4197C22.8404 29.874 20.4878 29.874 19.0361 28.4197L15.7418 25.128C14.2876 23.6738 14.2876 21.3211 15.7418 19.8694L19.0335 16.5777C20.4878 15.1235 22.8404 15.1235 24.2921 16.5777L27.5863 19.8694Z" fill="#5240AB"/>
<path d="M17.1681 9.45125L24.2946 16.5778C22.8404 15.1235 20.4878 15.1235 19.0361 16.5778L15.7418 19.8694C14.2876 21.3237 14.2876 23.6763 15.7418 25.128L19.0335 28.4197C20.4878 29.874 22.8404 29.874 24.2921 28.4197L17.1656 35.5462C14.0795 38.64 9.29803 39.2668 5.50637 37.0791C2.6918 35.4549 0.960938 32.4474 0.960938 29.1989V15.8011C0.960938 12.5501 2.6918 9.54262 5.5089 7.91834C9.29803 5.73065 14.082 6.35752 17.1681 9.45125Z" fill="url(#paint0_linear_2_48)"/>
<path d="M17.1681 9.45125L24.2946 16.5778C22.8404 15.1235 20.4878 15.1235 19.0361 16.5778L15.7418 19.8694C14.2876 21.3237 14.2876 23.6763 15.7418 25.128L19.0335 28.4197C20.4878 29.874 22.8404 29.874 24.2921 28.4197L17.1656 35.5462C14.0795 38.64 9.29803 39.2668 5.50637 37.0791C2.6918 35.4549 0.960938 32.4474 0.960938 29.1989V15.8011C0.960938 12.5501 2.6918 9.54262 5.5089 7.91834C9.29803 5.73065 14.082 6.35752 17.1681 9.45125Z" fill="url(#paint1_linear_2_48)"/>
<path d="M42.3672 15.8011V29.1989C42.3672 32.3408 40.7506 35.2569 38.0908 36.9091C40.0856 35.5335 40.3851 32.6403 38.6314 30.8942L24.2921 16.5752L17.1682 9.45124C14.082 6.35751 9.30057 5.73064 5.50891 7.91834L17.1098 1.21821C19.932 -0.406068 23.3962 -0.406068 26.2184 1.21821L37.8218 7.91834C40.6364 9.54261 42.3672 12.5501 42.3672 15.8011Z" fill="url(#paint2_linear_2_48)"/>
<path d="M40.276 34.0692C40.3953 32.7545 39.9258 31.4653 38.9918 30.5338L24.6525 16.2174L17.526 9.09088C15.6099 7.16967 13.0593 6.11389 10.3412 6.11389C10.0925 6.11389 9.84628 6.12404 9.6001 6.14181V6.65447C9.84628 6.6367 10.095 6.62402 10.3412 6.62402C12.841 6.62402 15.3104 7.5935 17.1657 9.4538L24.2922 16.5803L38.6315 30.8993C39.5502 31.8155 39.9004 33.0464 39.7431 34.2088H40.2608C40.2659 34.158 40.271 34.1149 40.276 34.0692Z" fill="url(#paint3_linear_2_48)"/>
<path d="M24.2947 16.5777L17.1682 9.45124C14.4805 6.7585 10.5087 5.93621 7.02156 7.21279C6.98603 7.22548 6.9505 7.24071 6.9175 7.2534H6.91496C6.4353 7.43613 5.96578 7.65693 5.50895 7.92087C5.07243 8.17213 4.66636 8.46145 4.28313 8.77616C4.18415 8.85737 4.08518 8.93858 3.99127 9.02487C7.69411 7.4006 12.0593 8.1772 14.9627 11.0857L19.8457 15.9686C21.2644 15.1692 23.0866 15.3697 24.2947 16.5777Z" fill="url(#paint4_linear_2_48)"/>
<path d="M38.6339 30.8942C40.3876 32.6403 40.0882 35.5335 38.0933 36.9091C38.0071 36.9649 37.9157 37.0233 37.8218 37.0791L26.2184 43.7793C23.3962 45.4035 19.9319 45.4035 17.1098 43.7793L5.50635 37.0791C9.29801 39.2668 14.0795 38.64 17.1656 35.5462L24.2921 28.4197L27.5838 25.128C29.038 23.6738 29.038 21.3211 27.5838 19.8694L38.6339 30.8942Z" fill="url(#paint5_linear_2_48)"/>
<path d="M24.2947 28.4222C23.1348 29.5821 21.409 29.8003 20.0182 29.11L13.5795 35.5487C12.1684 36.9649 10.3995 37.8557 8.53412 38.206C11.6126 38.7922 14.8612 37.8583 17.1681 35.5487L24.2947 28.4222Z" fill="url(#paint6_linear_2_48)"/>
<path d="M27.5864 19.8694C28.7893 21.0724 28.9822 22.887 28.1904 24.3007L36.9742 33.0717C38.0477 34.1402 38.3649 35.6274 38.0147 36.9548C38.0401 36.9395 38.0655 36.9243 38.0883 36.9091C40.0831 35.5335 40.3826 32.6403 38.6289 30.8942L27.5864 19.8694Z" fill="url(#paint7_linear_2_48)"/>
<path d="M29.1675 22.1662H28.6599C28.7538 23.2245 28.3985 24.3184 27.5864 25.1305L24.2947 28.4222L17.1682 35.5487C15.3129 37.409 12.841 38.3785 10.3437 38.3785C10.0975 38.3785 9.84878 38.3658 9.6026 38.3481V38.8607C9.84878 38.8785 10.0975 38.8886 10.3437 38.8886C13.0618 38.8886 15.6124 37.8303 17.5285 35.9116L24.6551 28.7851L27.9467 25.4935C28.8553 24.5798 29.2614 23.3565 29.1675 22.1662Z" fill="url(#paint8_linear_2_48)"/>
<defs>
<linearGradient id="paint0_linear_2_48" x1="-1.29622" y1="34.148" x2="33.4812" y2="-0.6294" gradientUnits="userSpaceOnUse">
<stop offset="0.0958" stop-color="#8155E5"/>
<stop offset="0.2038" stop-color="#7860E7"/>
<stop offset="0.3929" stop-color="#5F7DEC"/>
<stop offset="0.6409" stop-color="#36ACF4"/>
<stop offset="0.927" stop-color="#00EBFF"/>
</linearGradient>
<linearGradient id="paint1_linear_2_48" x1="-1.29622" y1="34.148" x2="33.4812" y2="-0.6294" gradientUnits="userSpaceOnUse">
<stop offset="0.0958" stop-color="#8155E5"/>
<stop offset="0.2038" stop-color="#7860E7"/>
<stop offset="0.3929" stop-color="#5F7DEC"/>
<stop offset="0.6409" stop-color="#36ACF4"/>
<stop offset="0.927" stop-color="#00EBFF"/>
</linearGradient>
<linearGradient id="paint2_linear_2_48" x1="18.2243" y1="4.25885" x2="43.4861" y2="29.5206" gradientUnits="userSpaceOnUse">
<stop offset="0.1534" stop-color="#FD2EB2"/>
<stop offset="0.2458" stop-color="#F42BB8"/>
<stop offset="0.3992" stop-color="#DA22C7"/>
<stop offset="0.5946" stop-color="#B113E0"/>
<stop offset="0.8052" stop-color="#7D00FF"/>
</linearGradient>
<linearGradient id="paint3_linear_2_48" x1="10.5961" y1="4.89406" x2="39.8744" y2="34.1723" gradientUnits="userSpaceOnUse">
<stop offset="0.0211" stop-color="#FE8FD6" stop-opacity="0"/>
<stop offset="0.1618" stop-color="#FD92EB" stop-opacity="0.3424"/>
<stop offset="0.3015" stop-color="#FD94F8" stop-opacity="0.6826"/>
<stop offset="0.4319" stop-color="#FD95FC"/>
<stop offset="0.5225" stop-color="#F48EFC"/>
<stop offset="0.6726" stop-color="#DA7BFD"/>
<stop offset="0.8628" stop-color="#B15CFF"/>
<stop offset="0.8984" stop-color="#A956FF"/>
<stop offset="0.988" stop-color="#9A38FF" stop-opacity="0"/>
</linearGradient>
<linearGradient id="paint4_linear_2_48" x1="7.39593" y1="6.02182" x2="24.9861" y2="23.6913" gradientUnits="userSpaceOnUse">
<stop offset="0.0327" stop-color="#004EAD"/>
<stop offset="0.9338" stop-color="#3FAFEA" stop-opacity="0"/>
</linearGradient>
<linearGradient id="paint5_linear_2_48" x1="12.4072" y1="46.4338" x2="37.3022" y2="21.5387" gradientUnits="userSpaceOnUse">
<stop offset="0.1098" stop-color="#FD5D85"/>
<stop offset="0.2848" stop-color="#FD6A7D"/>
<stop offset="0.6052" stop-color="#FE8B68"/>
<stop offset="0.9954" stop-color="#FFBB49"/>
</linearGradient>
<linearGradient id="paint6_linear_2_48" x1="25.9768" y1="23.751" x2="7.80944" y2="41.9184" gradientUnits="userSpaceOnUse">
<stop offset="0.2804" stop-color="#4637D2"/>
<stop offset="0.3952" stop-color="#4B3CD3" stop-opacity="0.7895"/>
<stop offset="0.54" stop-color="#594CD7" stop-opacity="0.524"/>
<stop offset="0.7002" stop-color="#7166DC" stop-opacity="0.2302"/>
<stop offset="0.8258" stop-color="#887FE2" stop-opacity="0"/>
</linearGradient>
<linearGradient id="paint7_linear_2_48" x1="25.2123" y1="20.8125" x2="39.1871" y2="34.7873" gradientUnits="userSpaceOnUse">
<stop offset="0.0369" stop-color="#E14534"/>
<stop offset="0.2665" stop-color="#E24836" stop-opacity="0.7616"/>
<stop offset="0.4377" stop-color="#E4523C" stop-opacity="0.5839"/>
<stop offset="0.5899" stop-color="#E86245" stop-opacity="0.4258"/>
<stop offset="0.7312" stop-color="#EE7853" stop-opacity="0.2791"/>
<stop offset="0.8648" stop-color="#F59665" stop-opacity="0.1404"/>
<stop offset="0.9911" stop-color="#FDB97A" stop-opacity="0.01"/>
<stop offset="1" stop-color="#FEBC7C" stop-opacity="0"/>
</linearGradient>
<linearGradient id="paint8_linear_2_48" x1="11.2142" y1="39.4759" x2="28.6705" y2="22.0196" gradientUnits="userSpaceOnUse">
<stop offset="0.0466" stop-color="#FE85A3" stop-opacity="0"/>
<stop offset="0.2968" stop-color="#FE85A3"/>
<stop offset="0.3772" stop-color="#FE91A0"/>
<stop offset="0.5239" stop-color="#FFB298"/>
<stop offset="0.6546" stop-color="#FFD58F"/>
<stop offset="1" stop-color="#FFD58F" stop-opacity="0"/>
</linearGradient>
</defs>
</svg>
